<svg width="66" height="22" xmlns="http://www.w3.org/2000/svg">
  <g fill-rule="nonzero" fill="none">
    <path d="M28.453 21.088H23.1L26.446 0h5.353l-3.346 21.088zM18.583 0l-5.104 14.504-.603-3.123-1.802-9.482S10.857 0 8.534 0H.098L0 .357s2.58.55 5.599 2.411l4.65 18.32h5.578L24.344 0h-5.761zm36.405 13.629l2.813-7.893 1.582 7.893h-4.395zm5.89 7.46h4.916L61.508 0h-4.304c-1.987 0-2.47 1.572-2.47 1.572L46.75 21.088h5.58l1.116-3.131h6.805l.627 3.131v.001zM47.14 5.449l.764-4.53S45.547 0 43.089 0c-2.656 0-8.964 1.191-8.964 6.981 0 5.449 7.403 5.517 7.403 8.377 0 2.86-6.64 2.35-8.832.545l-.796 4.735s2.39 1.191 6.043 1.191c3.652 0 9.164-1.941 9.164-7.22 0-5.483-7.47-5.993-7.47-8.377 0-2.384 5.213-2.078 7.504-.783h-.001z" fill="#005B9C"/>
    <path d="M12.876 11.382l-1.802-9.483S10.857 0 8.534 0H.098L0 .357s4.055.862 7.945 4.09c3.718 3.088 4.931 6.935 4.931 6.935" fill="#EF9F3F"/>
    <path fill="none" d="M-6-28h78v78H-6z"/>
  </g>
</svg>