<svg width="73" height="18" xmlns="http://www.w3.org/2000/svg">
  <g fill="none" fill-rule="evenodd">
    <path fill="none" d="M-3-30h78v78H-3z"/>
    <g fill="#008BB6">
      <path d="M46.294 17.988v-1.746s-.092-1.368-1.508-1.368h-2.201v3.114H40.32V9.013h5.49s2.867-.35 2.867 2.627c0 1.549-1.267 2.095-1.267 2.095s1.086.517 1.086 2.033v2.218h-2.203m-3.71-5.222h2.339c.678 0 1.235-.38 1.235-.85 0-.471-.557-.852-1.234-.852h-2.34v1.702M31.208 18h-1.976l-2.4-2.658L24.42 18H16V9.01h8.237l2.596 2.855 2.61-2.84h1.735V9.01h5.492s2.866-.32 2.866 2.64c0 2.643-.95 3.465-3.877 3.465H33.44V18h-2.232m-2.836-4.418l2.806 3.129v-6.242l-2.806 3.114m-10.094 2.475h4.768l2.233-2.475-2.233-2.463h-4.768v1.381h4.647v2.037h-4.647v1.52m15.162-3.282h2.34c.678 0 1.236-.38 1.236-.85s-.558-.851-1.237-.851H33.44v1.7m28.289 5.186h-4.03v-2.066h3.532s1.267.151 1.267-.713c0-.808-1.916-.744-1.916-.744s-3.123.273-3.123-2.672c0-2.931 2.821-2.764 2.821-2.764h4.347v2.095h-3.5s-1.208-.244-1.208.64c0 .74 1.642.636 1.642.636s3.456-.256 3.456 2.445c0 2.899-2.226 3.156-3.015 3.156-.17-.002-.273-.013-.273-.013m-12.115-.001V9h7.059v2.08h-4.781v1.382h4.663v2.037h-4.663v1.52h4.78v1.94h-7.058m20.095.002h-4.028v-2.066h3.517s1.282.151 1.282-.713c0-.808-1.915-.744-1.915-.744s-3.123.273-3.123-2.672c0-2.931 2.821-2.764 2.821-2.764h4.332v2.095h-3.487s-1.207-.244-1.207.64c0 .74 1.644.636 1.644.636S73 12.117 73 14.818c0 2.899-2.226 3.156-3.015 3.156-.173-.002-.276-.013-.276-.013"/>
      <path d="M38.22 8.956V7.23s-.093-1.353-1.507-1.353h-2.2v3.08h-2.26V.076h5.484s2.863-.345 2.863 2.6c0 1.533-1.266 2.075-1.266 2.075s1.099.512 1.099 2.015v2.192h-2.214m-3.706-5.171h2.335c.678 0 1.236-.376 1.236-.842 0-.466-.557-.84-1.236-.84h-2.334v1.682m30.371 5.17L61.3 3.02v5.936h-4.43l-.8-1.863h-4.128l-.785 1.863h-3.54s-3.042-.435-3.042-4.192c0-4.93 3.452-4.734 3.571-4.764l2.787.075v1.999l-2.289.03s-1.492 0-1.674 1.94a5.99 5.99 0 0 0-.03.618c.01 3.002 2.614 2.071 2.697 2.042L52.44.077h3.164l3.388 8.056V.077h3.194l3.54 5.846V.077H68v8.88h-3.115M52.908 4.823h2.198l-1.083-2.645-1.115 2.645M20.173 8.999V2.87l-2.832 6.13h-1.854L12.64 2.898v6.101H8.18l-.783-1.864H3.27L2.47 9H0L3.752.12H6.93l3.435 8.16V.119h3.57l2.486 5.516L18.892.118h3.57V9h-2.29M4.234 4.868h2.2l-1.1-2.646-1.1 2.646m19.794 4.088V.076h7.052V2.15h-4.777v1.368h4.656V5.53h-4.656v1.505h4.776v1.921h-7.05m17.505.03V.077h2.276v8.91h-2.276"/>
    </g>
  </g>
</svg>