<svg width="47" height="36" xmlns="http://www.w3.org/2000/svg">
  <g fill-rule="nonzero" fill="none">
    <path fill="none" d="M-16-21h78v78h-78z"/>
    <path d="M46.425 14.337c0 7.913-6.4 14.338-14.3 14.338s-14.3-6.413-14.3-14.338c0-7.925 6.4-14.337 14.3-14.337s14.3 6.412 14.3 14.337" fill="#F59511"/>
    <path d="M28.775 14.337c0 7.913-6.4 14.338-14.3 14.338S.175 22.262.175 14.337C.175 6.412 6.575 0 14.475 0s14.3 6.412 14.3 14.337" fill="#EA1C24"/>
    <path d="M23.3 3.05a14.313 14.313 0 0 0-5.475 11.287c0 4.576 2.138 8.663 5.475 11.288a14.313 14.313 0 0 0 5.475-11.288c0-4.587-2.138-8.662-5.475-11.287" fill="#F14D1C"/>
    <path d="M45.55 21.937v-.425h.175v-.087h-.438v.087h.175v.425h.088zm.85 0v-.512h-.137l-.15.35-.15-.35h-.138v.512h.1v-.387l.15.337h.1l.15-.337v.387h.075z" fill="#F59511"/>
    <path d="M3.35 35.763h-.812v-3.788h.8v.463s.7-.563 1.112-.563c.813.013 1.288.7 1.288.7s.387-.7 1.275-.7c1.3 0 1.5 1.188 1.5 1.188v2.674h-.775v-2.35s0-.712-.838-.712c-.875 0-.95.713-.95.713v2.35h-.812v-2.376s-.075-.75-.813-.75c-.95 0-.975.763-.975.763v2.388M28.038 31.875c-.413-.013-1.113.562-1.113.562v-.462h-.8v3.775h.813l-.013-2.375s.013-.763.975-.763c.175 0 .313.038.425.113l.263-.738a1.54 1.54 0 0 0-.55-.112M39.475 31.875c-.412-.013-1.112.562-1.112.562v-.462h-.8v3.775h.812l-.012-2.375s.012-.763.975-.763c.175 0 .312.038.425.113l.262-.738a1.598 1.598 0 0 0-.55-.112M11.288 32.625c.65 0 1.187.562 1.187 1.262s-.525 1.263-1.187 1.263c-.65 0-1.175-.562-1.175-1.262-.013-.688.525-1.263 1.175-1.263zm-.163-.763c-1.212 0-1.862 1.088-1.862 2 0 .938.737 2.013 1.9 2.013.675 0 1.237-.5 1.237-.5v.388h.8v-3.788h-.8v.475s-.525-.587-1.275-.587zM34.588 32.625c.65 0 1.187.562 1.187 1.262s-.525 1.263-1.187 1.263c-.65 0-1.175-.562-1.175-1.262 0-.688.525-1.263 1.175-1.263zm-.15-.763c-1.213 0-1.863 1.088-1.863 2 0 .938.738 2.013 1.9 2.013.675 0 1.238-.5 1.238-.5v.388h.8v-3.788h-.8v.475c-.013 0-.538-.588-1.275-.588zM42.263 32.625c.65 0 1.187.562 1.187 1.262s-.525 1.263-1.187 1.263c-.663 0-1.175-.562-1.175-1.262 0-.688.524-1.263 1.175-1.263zm-.163-.763c-1.212 0-1.863 1.088-1.863 2 0 .938.738 2.013 1.9 2.013.675 0 1.238-.5 1.238-.5v.388h.8v-5.288h-.8v1.975s-.525-.588-1.275-.588zM15.638 35.887c-.825 0-1.588-.512-1.588-.512l.35-.538s.725.338 1.238.338c.337 0 .9-.113.912-.45.013-.35-.95-.463-.95-.463s-1.425-.025-1.425-1.2c0-.737.713-1.212 1.625-1.212.525 0 1.513.462 1.513.462l-.4.625s-.763-.3-1.163-.312c-.337-.013-.75.15-.75.45 0 .8 2.375-.063 2.375 1.562 0 1.05-.975 1.25-1.737 1.25M18.688 30.875v1.1h-.713v.8h.713v1.9s-.063 1.287 1.325 1.287c.387 0 1.137-.287 1.137-.287l-.325-.825s-.3.25-.637.25c-.638-.013-.625-.425-.625-.425v-1.9h1.325v-.8h-1.325v-1.1h-.875M23.375 32.65h.1c.975 0 .963.925.963.925h-1.975c.012-.013-.038-.875.912-.925zm.125-.75c-1.3 0-1.95 1.075-1.95 2 0 .963.588 2.038 2.025 2.037.613 0 1.475-.537 1.475-.537l-.375-.65s-.587.413-1.1.413c-1.037 0-1.1-1.013-1.1-1.013h2.775c0 .013.2-2.25-1.75-2.25zM31.738 34.75l.375.737s-.588.388-1.25.388c-1.363 0-2.125-1.025-2.125-2 0-1.525 1.212-1.975 2.025-1.975.737 0 1.387.425 1.387.425l-.412.737s-.25-.4-.988-.4c-.737 0-1.125.638-1.125 1.238 0 .675.45 1.25 1.138 1.25.525 0 .975-.4.975-.4M45.875 35.5c.025 0 .038 0 .05.012.013.013.013.025.013.038 0 .012 0 .025-.013.037-.012.013-.025.013-.05.013h-.087v-.1h.087zm0-.063h-.163v.35h.075v-.137h.038l.112.137h.088l-.112-.137a.113.113 0 0 0 .087-.038c.025-.025.025-.037.025-.075a.113.113 0 0 0-.038-.087c-.037 0-.075-.013-.112-.013zm-.025.475c-.087 0-.163-.025-.212-.087a.302.302 0 0 1-.088-.213c0-.087.025-.15.088-.212a.302.302 0 0 1 .212-.088c.087 0 .15.026.212.088.05.05.088.125.088.213 0 .087-.025.15-.087.212a.274.274 0 0 1-.213.087zm0-.675c-.113 0-.2.038-.275.113a.368.368 0 0 0-.113.275c0 .112.038.2.113.275a.368.368 0 0 0 .275.112c.112 0 .2-.037.275-.112a.368.368 0 0 0 .112-.275c0-.113-.037-.2-.112-.275a.368.368 0 0 0-.275-.113z" fill="#100F0D"/>
  </g>
</svg>