<svg width="57" height="35" xmlns="http://www.w3.org/2000/svg">
  <g fill-rule="nonzero" fill="none">
    <path fill="none" d="M-11-22h78v78h-78z"/>
    <path d="M28.412 29.6A16.958 16.958 0 0 0 34 17c0-4.996-2.156-9.49-5.588-12.6A16.937 16.937 0 0 0 17 0C7.612 0 0 7.611 0 17c0 9.39 7.612 17 17 17a16.94 16.94 0 0 0 11.412-4.4z" fill="#009DDD"/>
    <path d="M39.307.5a17.24 17.24 0 0 0-13.278 6.2H29.5c.475.57.913 1.171 1.311 1.8h-6.093c-.366.58-.697 1.18-.99 1.8H31.8c.276.583.52 1.183.73 1.8h-9.532c-.2.59-.366 1.191-.499 1.8h10.53a16.9 16.9 0 0 1-.5 9H23c.208.616.451 1.218.727 1.8h8.074c-.293.62-.624 1.22-.99 1.8h-6.093c.398.63.836 1.23 1.31 1.8H29.5a17.213 17.213 0 0 1-1.735 1.8 17.24 17.24 0 0 0 11.542 4.4c9.495 0 17.193-7.61 17.193-17 0-9.389-7.698-17-17.193-17z" fill="#ED1C2E"/>
    <path d="M15.099 21.712H12.95l1.277-6.775-2.939 6.775H9.33l-.358-6.736-1.28 6.736h-1.95l1.666-8.813h3.351l.177 5.456 2.363-5.456h3.492l-1.693 8.813h.001zm24-.088c-.588.162-1.047.232-1.543.232-1.1 0-1.7-.555-1.7-1.573 0-.202.023-.417.064-.643l.13-.702.101-.567.996-5.472h2.135l-.309 1.646h1.096l-.295 1.742h-1.1l-.566 2.99a1.72 1.72 0 0 0-.037.297c0 .37.223.531.733.531.245 0 .434-.022.58-.067l-.285 1.586zm6.271-7.02c-.179-.072-.222-.072-.242-.078l-.185-.042a1.197 1.197 0 0 0-.216-.018c-.706 0-1.213.317-1.87 1.164l.189-1.086H41.1l-1.31 7.168h2.15c.768-4.384 1.098-5.152 2.13-5.152.076 0 .166.007.27.019l.251.051.779-2.026zm-14.784 2.205c0 .905.506 1.529 1.654 1.998.88.359 1.016.465 1.016.79 0 .447-.388.648-1.247.648a6.936 6.936 0 0 1-1.947-.284l-.298 1.654.096.016.398.073c.128.022.317.044.568.063.516.04.916.06 1.198.06 2.292 0 3.351-.757 3.351-2.392 0-.984-.442-1.56-1.531-1.995-.91-.363-1.016-.443-1.016-.778 0-.386.361-.585 1.063-.585.427 0 1.009.04 1.561.108l.31-1.66a16.948 16.948 0 0 0-1.912-.14c-2.43 0-3.272 1.102-3.264 2.424zm-8.506 4.903h-1.784l.041-.743c-.543.588-1.267.867-2.252.867-1.164 0-1.963-.799-1.963-1.958 0-1.746 1.388-2.764 3.773-2.764.244 0 .555.02.875.056.066-.236.084-.338.084-.466 0-.475-.374-.652-1.377-.652-.613 0-1.306.078-1.785.2l-.297.076-.193.046.298-1.611c1.07-.276 1.777-.38 2.57-.38 1.847 0 2.822.727 2.822 2.101 0 .354-.032.623-.174 1.42l-.45 2.543-.075.456-.055.365-.037.25-.02.194h-.001zm-1.566-3.193c-.16-.02-.32-.03-.48-.03-1.218 0-1.834.367-1.834 1.09 0 .447.3.731.77.731.876 0 1.507-.731 1.544-1.791zm8.612 3.038a8.305 8.305 0 0 1-2.2.29c-2.402-.001-3.653-1.102-3.653-3.21 0-2.46 1.592-4.272 3.753-4.272 1.768 0 2.897 1.015 2.897 2.605 0 .528-.077 1.043-.264 1.77h-4.27c-.016.11-.02.16-.02.225 0 .83.636 1.255 1.883 1.255.767 0 1.46-.14 2.23-.454l-.356 1.791zm-1.144-4.265a4.89 4.89 0 0 0 .018-.365c0-.582-.377-.924-1.016-.924-.683 0-1.172.458-1.37 1.285l2.368.004zm24.064 1.17c-.32 2.384-1.974 3.442-4.17 3.442-2.43 0-3.412-1.485-3.412-3.304 0-2.54 1.662-4.261 4.229-4.261 2.228 0 3.41 1.415 3.41 3.234 0 .442 0 .472-.057.89v-.001zm-2.211-.917c0-.75-.302-1.458-1.183-1.458-1.095 0-1.775 1.305-1.775 2.458 0 .97.466 1.624 1.233 1.61.466 0 1.458-.64 1.655-1.754.046-.26.07-.546.07-.856z" fill="#FFF"/>
  </g>
</svg>